<svg xmlns="http://www.w3.org/2000/svg" xmlns:xlink="http://www.w3.org/1999/xlink" version="1.1" id="Layer_1" x="0px" y="0px" width="100%" viewBox="0 0 737 737" enable-background="new 0 0 737 737" xml:space="preserve">
<path fill="#ffffff" opacity="1.000000" stroke="none" d=" M1.000000,525.000000   C1.000000,350.379303 1.000000,175.758621 1.000000,1.068962   C246.556015,1.068962 492.112061,1.068962 738.000000,1.068962   C738.000000,118.691360 738.000000,236.383041 737.542480,354.537354   C735.277405,354.999054 733.461853,354.889130 731.664246,355.022278   C728.861328,355.229858 727.575134,353.969360 728.031128,351.271515   C728.953308,345.816376 726.371338,344.261749 721.444824,344.975830   C720.318237,345.139130 719.147827,344.999176 717.997559,344.541626   C717.997498,335.041779 717.997498,335.041779 708.833496,334.654816   C708.302368,331.682617 708.059509,329.028809 707.694580,326.391937   C700.482971,274.283417 683.031860,225.897507 653.042664,182.615234   C591.565979,93.888405 507.173737,43.111420 399.283386,33.847160   C323.754822,27.361719 253.413315,45.463013 190.298126,87.138603   C98.410454,147.812958 46.510086,233.527725 36.716442,343.675415   C31.659676,400.548096 41.613453,455.148651 65.044937,507.179108   C70.833511,520.032776 77.841171,532.337402 83.835312,544.923828   C79.512009,544.476257 77.256561,545.681519 77.996040,550.072266   C78.674721,554.101990 76.807167,555.094543 72.966019,555.131836   C68.990555,555.170410 67.599937,553.925842 67.899101,549.993347   C68.017319,548.439331 67.484779,545.942810 66.423607,545.348511   C62.136360,542.947510 57.933807,545.550659 58.068092,550.422119   C58.161011,553.792908 57.214325,555.544434 53.609795,554.995789   C49.411785,554.356628 47.218616,555.751953 47.990257,560.352600   C48.631283,564.174500 46.800308,565.147888 43.182564,565.106995   C39.577145,565.066101 37.285213,564.490845 37.993870,560.218933   C38.682549,556.067444 36.885605,554.360962 32.757862,554.997009   C29.073730,555.564575 27.382122,554.039612 28.011234,550.294861   C28.798443,545.609070 26.442167,544.414856 22.331642,544.991089   C19.196501,545.430603 17.482105,544.225464 18.016129,540.866821   C18.803282,535.916138 16.560402,534.293213 11.904042,534.976196   C9.298029,535.358459 7.521535,534.379150 8.037295,531.442139   C9.084832,525.476807 6.019281,524.224060 1.000000,525.000000  z"/>
<path fill="#ffffff" opacity="1.000000" stroke="none" d=" M738.000000,405.000000   C738.000000,515.956177 738.000000,626.912292 738.000000,737.934204   C492.333344,737.934204 246.666672,737.934204 1.000003,737.928528   C1.000000,730.592590 1.000000,723.262390 1.444767,715.466064   C6.550588,715.782043 8.809752,714.109436 8.016101,709.136169   C7.477015,705.758179 9.215184,704.562439 12.349189,705.010742   C16.522444,705.607788 18.794264,704.311096 18.010056,699.659180   C17.363836,695.825867 19.210093,694.443298 22.827435,695.006714   C27.089052,695.670410 28.622215,693.732727 27.999313,689.683105   C27.412798,685.870056 29.159201,684.438049 32.805534,685.005615   C37.034874,685.663940 38.630180,683.786133 38.000401,679.705017   C37.416588,675.921753 39.107796,674.432861 42.783581,675.004578   C46.980717,675.657288 48.637867,673.839844 48.001526,669.726929   C47.420834,665.973694 49.056122,664.427917 52.761650,665.003357   C56.926281,665.650085 58.645359,663.893982 58.002716,659.748840   C57.425537,656.026001 59.003998,654.423035 62.739735,655.002075   C66.872017,655.642517 68.652588,653.948364 68.003868,649.770752   C67.430443,646.078064 68.951714,644.418518 72.717865,645.000977   C76.818054,645.635010 78.659653,644.002625 78.005005,639.792664   C77.435356,636.129395 78.900146,634.414612 82.695976,634.999878   C86.764656,635.627380 88.666214,634.056580 88.006111,629.814514   C87.440605,626.180420 88.848495,624.410889 92.674072,624.998840   C96.711517,625.619385 98.672585,624.110779 98.007210,619.836365   C97.446007,616.231201 98.796852,614.407471 102.652199,614.997681   C106.658646,615.611084 108.718269,614.158813 107.996368,609.860229   C107.292923,605.671509 109.418579,604.440186 113.127304,605.015259   C117.304932,605.663025 118.014793,603.604248 118.131950,599.885681   C118.263214,595.719299 116.641998,594.430054 112.894783,595.012756   C108.757004,595.656189 107.425400,593.671753 108.011597,589.905396   C108.652481,585.787659 106.702568,584.420166 102.916428,585.010193   C98.818619,585.648743 97.415619,583.732544 98.009033,579.927002   C98.644859,575.849426 96.763695,574.410522 92.938095,575.007507   C88.880989,575.640686 88.090858,573.756470 87.851814,569.957275   C87.452576,563.612305 91.628738,565.149231 95.317657,565.143677   C96.760040,565.854614 97.910141,566.415955 99.347733,567.146057   C101.731575,570.287720 103.827934,573.260620 105.933685,576.576782   C106.659843,577.601379 107.376602,578.282776 108.398933,579.097778   C112.797417,584.229675 116.890343,589.227966 120.977425,594.583374   C122.034645,595.939270 123.097717,596.938110 124.470108,598.054321   C131.539474,605.064148 138.299515,611.956665 145.065216,619.204346   C146.298431,620.379211 147.526001,621.198792 149.074738,622.147095   C154.271317,626.497925 159.146698,630.720032 164.052856,635.322998   C165.259674,636.393616 166.435760,637.083435 167.929810,637.830322   C170.835052,639.916260 173.422333,641.945190 176.041489,644.337524   C177.869034,645.744324 179.664703,646.787598 181.786285,647.892822   C260.706299,700.937317 346.744537,718.660950 439.663269,700.793518   C504.439606,688.337463 560.557434,658.383240 607.708740,612.177490   C650.412598,570.329895 680.682800,520.807312 697.223450,463.217102   C701.117554,449.658691 703.736206,435.733917 707.232178,422.222839   C709.347107,426.932648 713.176270,424.633911 716.115540,424.672363   C716.722168,424.680267 717.596436,421.651611 717.931030,419.941071   C718.242126,418.350983 717.997559,416.652161 718.455200,415.000793   C720.720398,414.999268 722.536011,414.889191 724.333618,415.022247   C727.134399,415.229553 728.424805,413.973602 727.968811,411.273712   C727.048340,405.822845 729.622375,404.259491 734.552795,404.975861   C735.679260,405.139526 736.849792,405.000000 738.000000,405.000000  z"/>
<path fill="#ffffff" opacity="1.000000" stroke="none" d=" M95.025383,564.993958   C91.628738,565.149231 87.452576,563.612305 87.851814,569.957275   C88.090858,573.756470 88.880989,575.640686 92.938095,575.007507   C96.763695,574.410522 98.644859,575.849426 98.009033,579.927002   C97.415619,583.732544 98.818619,585.648743 102.916428,585.010193   C106.702568,584.420166 108.652481,585.787659 108.011597,589.905396   C107.425400,593.671753 108.757004,595.656189 112.894783,595.012756   C116.641998,594.430054 118.263214,595.719299 118.131950,599.885681   C118.014793,603.604248 117.304932,605.663025 113.127304,605.015259   C109.418579,604.440186 107.292923,605.671509 107.996368,609.860229   C108.718269,614.158813 106.658646,615.611084 102.652199,614.997681   C98.796852,614.407471 97.446007,616.231201 98.007210,619.836365   C98.672585,624.110779 96.711517,625.619385 92.674072,624.998840   C88.848495,624.410889 87.440605,626.180420 88.006111,629.814514   C88.666214,634.056580 86.764656,635.627380 82.695976,634.999878   C78.900146,634.414612 77.435356,636.129395 78.005005,639.792664   C78.659653,644.002625 76.818054,645.635010 72.717865,645.000977   C68.951714,644.418518 67.430443,646.078064 68.003868,649.770752   C68.652588,653.948364 66.872017,655.642517 62.739735,655.002075   C59.003998,654.423035 57.425537,656.026001 58.002716,659.748840   C58.645359,663.893982 56.926281,665.650085 52.761650,665.003357   C49.056122,664.427917 47.420834,665.973694 48.001526,669.726929   C48.637867,673.839844 46.980717,675.657288 42.783581,675.004578   C39.107796,674.432861 37.416588,675.921753 38.000401,679.705017   C38.630180,683.786133 37.034874,685.663940 32.805534,685.005615   C29.159201,684.438049 27.412798,685.870056 27.999313,689.683105   C28.622215,693.732727 27.089052,695.670410 22.827435,695.006714   C19.210093,694.443298 17.363836,695.825867 18.010056,699.659180   C18.794264,704.311096 16.522444,705.607788 12.349189,705.010742   C9.215184,704.562439 7.477015,705.758179 8.016101,709.136169   C8.809752,714.109436 6.550588,715.782043 1.444767,715.000000   C1.000000,651.979126 1.000000,588.958191 1.000000,525.468628   C6.019281,524.224060 9.084832,525.476807 8.037295,531.442139   C7.521535,534.379150 9.298029,535.358459 11.904042,534.976196   C16.560402,534.293213 18.803282,535.916138 18.016129,540.866821   C17.482105,544.225464 19.196501,545.430603 22.331642,544.991089   C26.442167,544.414856 28.798443,545.609070 28.011234,550.294861   C27.382122,554.039612 29.073730,555.564575 32.757862,554.997009   C36.885605,554.360962 38.682549,556.067444 37.993870,560.218933   C37.285213,564.490845 39.577145,565.066101 43.182564,565.106995   C46.800308,565.147888 48.631283,564.174500 47.990257,560.352600   C47.218616,555.751953 49.411785,554.356628 53.609795,554.995789   C57.214325,555.544434 58.161011,553.792908 58.068092,550.422119   C57.933807,545.550659 62.136360,542.947510 66.423607,545.348511   C67.484779,545.942810 68.017319,548.439331 67.899101,549.993347   C67.599937,553.925842 68.990555,555.170410 72.966019,555.131836   C76.807167,555.094543 78.674721,554.101990 77.996040,550.072266   C77.256561,545.681519 79.512009,544.476257 84.131470,545.075562   C88.318024,550.626587 91.755302,556.055298 95.130432,561.919678   C95.053986,563.234924 95.039680,564.114441 95.025383,564.993958  z"/>
<path fill="#ffffff" opacity="1.000000" stroke="none" d=" M738.000000,404.531342   C736.849792,405.000000 735.679260,405.139526 734.552795,404.975861   C729.622375,404.259491 727.048340,405.822845 727.968811,411.273712   C728.424805,413.973602 727.134399,415.229553 724.333618,415.022247   C722.536011,414.889191 720.720398,414.999268 718.456421,415.000183   C718.000000,415.000000 718.000000,415.002441 718.000000,414.544952   C717.999878,404.999298 717.999878,404.999298 709.016113,404.573059   C709.113892,402.100830 709.325745,400.056274 709.858337,397.884216   C711.521423,396.837738 712.847290,395.179382 714.209595,395.148895   C717.357544,395.078522 718.051636,393.752258 718.054993,390.917053   C718.062012,385.036377 718.192444,385.036530 710.460449,384.548279   C710.473450,381.086853 710.642090,378.055786 711.207703,375.016693   C718.362244,374.959778 718.207214,374.963837 718.041443,368.610443   C717.883545,362.559662 713.326355,365.929718 710.629272,364.546051   C710.492920,361.086823 710.525330,358.052155 710.969849,355.013550   C717.995544,354.969543 717.995667,354.969543 717.999878,348.421753   C718.000610,347.280365 718.000000,346.138947 718.000000,344.998779   C718.000000,345.000000 717.997559,344.998779 717.997559,344.998779   C719.147827,344.999176 720.318237,345.139130 721.444824,344.975830   C726.371338,344.261749 728.953308,345.816376 728.031128,351.271515   C727.575134,353.969360 728.861328,355.229858 731.664246,355.022278   C733.461853,354.889130 735.277405,354.999054 737.542480,355.000000   C738.000000,371.354218 738.000000,387.708466 738.000000,404.531342  z"/>
<path fill="#47ccc8" opacity="1.000000" stroke="none" d=" M709.537598,398.011749   C709.325745,400.056274 709.113892,402.100830 708.807251,404.921997   C708.275024,409.803497 707.837524,413.908417 707.216553,418.378296   C707.002502,419.821381 706.971985,420.899536 706.941528,421.977661   C703.736206,435.733917 701.117554,449.658691 697.223450,463.217102   C680.682800,520.807312 650.412598,570.329895 607.708740,612.177490   C560.557434,658.383240 504.439606,688.337463 439.663269,700.793518   C346.744537,718.660950 260.706299,700.937317 181.622391,647.593872   C179.424927,646.146667 177.717270,645.060364 176.009613,643.974121   C173.422333,641.945190 170.835052,639.916260 167.778503,637.527893   C166.213531,636.426331 165.117828,635.684204 164.022095,634.942139   C159.146698,630.720032 154.271317,626.497925 148.977371,621.849609   C147.392410,620.565247 146.225983,619.707214 145.059555,618.849121   C138.299515,611.956665 131.539474,605.064148 124.417084,597.739563   C123.030922,596.280396 122.007111,595.253296 120.983276,594.226257   C116.890343,589.227966 112.797417,584.229675 108.355827,578.792847   C107.312866,577.647461 106.618576,576.940491 105.924286,576.233521   C103.827934,573.260620 101.731575,570.287720 99.300369,566.805786   C97.707863,564.692505 96.450226,563.088257 95.192581,561.483948   C91.755302,556.055298 88.318024,550.626587 84.584579,545.046204   C77.841171,532.337402 70.833511,520.032776 65.044937,507.179108   C41.613453,455.148651 31.659676,400.548096 36.716442,343.675415   C46.510086,233.527725 98.410454,147.812958 190.298126,87.138603   C253.413315,45.463013 323.754822,27.361719 399.283386,33.847160   C507.173737,43.111420 591.565979,93.888405 653.042664,182.615234   C683.031860,225.897507 700.482971,274.283417 707.694580,326.391937   C708.059509,329.028809 708.302368,331.682617 708.711182,335.081482   C709.041016,337.884033 709.261719,339.933655 709.388916,342.400452   C709.716248,346.884308 710.137024,350.950897 710.557739,355.017517   C710.525330,358.052155 710.492920,361.086823 710.499512,364.987762   C710.629272,368.910950 710.719971,371.967834 710.810669,375.024719   C710.642090,378.055786 710.473450,381.086853 710.279236,384.965271   C710.014893,389.878998 709.776245,393.945374 709.537598,398.011749  M241.962128,395.099121   C242.315323,394.401886 242.668533,393.704651 243.605713,392.676331   C245.173767,390.154083 246.741821,387.631836 248.904678,384.825378   C259.065582,369.697510 269.226471,354.569641 279.754608,338.895020   C280.745178,340.705902 281.440613,341.794312 281.962433,342.960419   C285.764313,351.456665 289.521484,359.972870 293.310944,368.474701   C315.375458,417.977234 337.455658,467.472809 359.496826,516.985718   C361.806793,522.174744 365.041901,526.387878 370.273590,528.938965   C383.671692,535.472046 396.745789,529.155396 401.649963,513.596436   C420.139862,454.935547 438.583832,396.260162 457.057220,337.594086   C460.951599,325.226685 464.858582,312.862762 468.881805,300.537079   C469.276001,299.329376 468.680634,296.001831 471.875153,298.598389   C471.982758,298.731049 472.090332,298.863678 472.205536,299.737946   C473.753845,303.512695 475.302124,307.287415 476.768555,311.766693   C477.228088,312.843384 477.687622,313.920105 478.105011,315.746948   C480.595123,322.120544 483.085236,328.494171 485.595245,334.949402   C485.595245,334.949402 485.602264,335.033081 485.527222,335.752167   C486.022552,336.833069 486.517914,337.913971 486.942017,339.706573   C487.399475,340.802002 487.856964,341.897400 488.297394,343.716278   C490.198334,348.477509 492.099274,353.238708 493.978241,358.743835   C495.056854,361.494568 496.135437,364.245270 497.204346,367.740662   C500.049530,375.532776 502.676392,383.413605 505.797943,391.093384   C509.286926,399.677185 515.757812,404.945892 525.199890,405.040283   C548.802490,405.276215 572.410522,405.272491 596.013489,405.053467   C607.117432,404.950500 616.387146,394.963409 616.786804,383.475189   C617.172363,372.393555 609.093140,362.925842 597.122925,361.163055   C594.085388,361.222778 591.047852,361.282532 587.128479,361.092957   C584.079956,361.175964 581.031372,361.258972 577.107300,361.087799   C574.074951,361.172638 571.042664,361.257477 567.128479,361.092957   C564.079956,361.175964 561.031372,361.258942 557.107300,361.087769   C554.074951,361.172607 551.042664,361.257446 547.186829,361.094086   C543.555664,361.544647 540.388733,361.083405 539.195129,356.384338   C538.948608,355.867676 538.702087,355.351044 538.393738,354.058197   C537.197449,350.950836 536.001160,347.843506 534.801086,343.965485   C534.139709,342.311279 533.478271,340.657074 532.905884,338.414978   C532.596863,337.946106 532.287842,337.477234 532.059387,336.422638   C531.802979,335.912994 531.546509,335.403351 531.306824,334.163177   C530.554688,332.435364 529.802551,330.707520 529.136658,328.272430   C528.683167,327.183197 528.229614,326.093964 527.803162,324.258789   C525.345764,317.880829 522.888367,311.502899 520.411194,305.047455   C520.411194,305.047455 520.410767,304.967407 520.463013,304.158691   C517.105408,295.156250 513.747803,286.153839 510.543121,276.558075   C510.263947,276.040466 509.984772,275.522827 509.776520,274.451477   C509.507263,273.971619 509.238037,273.491791 509.040161,272.300323   C508.592346,271.200714 508.144531,270.101105 507.701385,268.268524   C501.953491,252.319916 496.250153,236.355042 490.442108,220.428360   C486.562012,209.788452 478.973969,204.651077 468.008484,205.016235   C459.024109,205.315430 451.267242,211.746506 448.200745,221.408447   C425.122314,294.124725 402.042145,366.840485 378.948639,439.552002   C378.139465,442.099762 377.185059,444.601379 376.023682,447.906006   C375.057281,446.139954 374.527802,445.318451 374.136261,444.435730   C362.073151,417.239166 350.050812,390.024536 337.963409,362.838776   C327.902222,340.210175 317.767181,317.614441 307.637299,294.300690   C305.948578,290.528931 304.405243,286.683594 302.540955,283.000763   C298.621643,275.258270 291.808716,271.741089 283.524323,271.656586   C275.673218,271.576538 269.051514,274.640686 264.787384,282.089600   C264.787384,282.089600 264.786316,282.431244 264.191376,282.800629   C261.819000,286.541718 259.446625,290.282776 256.529175,294.419739   C247.662506,307.929749 238.795837,321.439728 229.977173,334.968170   C229.977173,334.968170 229.952820,334.923370 229.363876,335.177338   C228.891754,336.108826 228.419617,337.040344 228.006271,337.985016   C228.006271,337.985016 227.964630,337.941406 227.384354,338.265320   C225.989243,340.511719 224.594147,342.758148 222.687454,345.369781   C222.070648,346.438416 221.453842,347.507080 220.245453,348.906952   C219.481476,350.265472 218.717514,351.623962 217.483047,353.233948   C217.274109,353.704193 217.065170,354.174469 216.293442,354.912445   C215.933319,355.630615 215.573212,356.348785 214.624130,357.399292   C213.757721,358.729279 212.891296,360.059296 211.085541,361.452454   C191.029129,361.499603 170.969437,361.367279 150.918854,361.733490   C146.494049,361.814301 142.101532,363.661377 137.951889,364.934448   C137.951889,364.934448 137.720230,364.669800 137.033691,364.761383   C134.093506,368.178741 131.153336,371.596069 127.776566,375.747528   C122.967903,390.730316 132.206390,404.890869 147.383759,405.040985   C173.203217,405.296356 199.027252,405.146606 224.849030,405.066132   C229.997437,405.050079 234.631119,403.401337 238.742706,399.093109   C239.650406,397.873199 240.558121,396.653259 241.128571,395.030426   C241.238266,395.164185 241.347946,395.297913 241.962128,395.099121  z"/>
<path fill="#ffffff" opacity="1.000000" stroke="none" d=" M709.482361,341.983246   C709.261719,339.933655 709.041016,337.884033 708.942627,335.407776   C717.997498,335.041779 717.997498,335.041779 717.997559,344.541656   C717.997559,344.998779 718.000000,345.000000 717.577820,344.998779   C714.067871,345.342041 711.238770,345.027893 709.482361,341.983246  z"/>
<path fill="#ffffff" opacity="1.000000" stroke="none" d=" M707.232178,422.222839   C706.971985,420.899536 707.002502,419.821381 707.553894,418.271729   C710.351440,413.207367 714.588501,415.569305 718.000000,415.002441   C718.000000,415.002441 718.000000,415.000000 717.998779,415.000610   C717.997559,416.652161 718.242126,418.350983 717.931030,419.941071   C717.596436,421.651611 716.722168,424.680267 716.115540,424.672363   C713.176270,424.633911 709.347107,426.932648 707.232178,422.222839  z"/>
<path fill="#ffffff" opacity="1.000000" stroke="none" d=" M95.130432,561.919678   C96.450226,563.088257 97.707863,564.692505 99.012878,566.637085   C97.910141,566.415955 96.760040,565.854614 95.317657,565.143677   C95.039680,564.114441 95.053986,563.234924 95.130432,561.919678  z"/>
<path fill="#ffffff" opacity="1.000000" stroke="none" d=" M176.041504,644.337524   C177.717270,645.060364 179.424927,646.146667 181.296463,647.531982   C179.664703,646.787598 177.869034,645.744324 176.041504,644.337524  z"/>
<path fill="#ffffff" opacity="1.000000" stroke="none" d=" M120.977432,594.583374   C122.007111,595.253296 123.030922,596.280396 124.107758,597.622192   C123.097717,596.938110 122.034645,595.939270 120.977432,594.583374  z"/>
<path fill="#ffffff" opacity="1.000000" stroke="none" d=" M145.065216,619.204346   C146.225983,619.707214 147.392410,620.565247 148.656189,621.720886   C147.526001,621.198792 146.298431,620.379211 145.065216,619.204346  z"/>
<path fill="#ffffff" opacity="1.000000" stroke="none" d=" M164.052856,635.322998   C165.117828,635.684204 166.213531,636.426331 167.460541,637.470825   C166.435760,637.083435 165.259674,636.393616 164.052856,635.322998  z"/>
<path fill="#ffffff" opacity="1.000000" stroke="none" d=" M105.933685,576.576782   C106.618576,576.940491 107.312866,577.647461 108.050262,578.659302   C107.376602,578.282776 106.659843,577.601379 105.933685,576.576782  z"/>
<path fill="#ffffff" opacity="1.000000" stroke="none" d=" M718.000000,414.544952   C714.588501,415.569305 710.351440,413.207367 707.737427,417.906769   C707.837524,413.908417 708.275024,409.803497 708.921387,405.349701   C717.999878,404.999298 717.999878,404.999298 718.000000,414.544952  z"/>
<path fill="#ffffff" opacity="1.000000" stroke="none" d=" M709.388916,342.400452   C711.238770,345.027893 714.067871,345.342041 717.577820,344.997559   C718.000000,346.138947 718.000610,347.280365 717.999878,348.421753   C717.995667,354.969543 717.995544,354.969543 710.969910,355.013550   C710.137024,350.950897 709.716248,346.884308 709.388916,342.400452  z"/>
<path fill="#ffffff" opacity="1.000000" stroke="none" d=" M709.858337,397.884216   C709.776245,393.945374 710.014893,389.878998 710.434814,385.395630   C718.192444,385.036530 718.062012,385.036377 718.054993,390.917053   C718.051636,393.752258 717.357544,395.078522 714.209595,395.148895   C712.847290,395.179382 711.521423,396.837738 709.858337,397.884216  z"/>
<path fill="#ffffff" opacity="1.000000" stroke="none" d=" M711.207642,375.016693   C710.719971,371.967834 710.629272,368.910950 710.668335,365.412354   C713.326355,365.929718 717.883545,362.559662 718.041443,368.610443   C718.207214,374.963837 718.362244,374.959778 711.207642,375.016693  z"/>
<path fill="#ffffff" opacity="1.000000" stroke="none" d=" M307.664856,295.004120   C317.767181,317.614441 327.902222,340.210175 337.963409,362.838776   C350.050812,390.024536 362.073151,417.239166 374.136261,444.435730   C374.527802,445.318451 375.057281,446.139954 376.023682,447.906006   C377.185059,444.601379 378.139465,442.099762 378.948639,439.552002   C402.042145,366.840485 425.122314,294.124725 448.200745,221.408447   C451.267242,211.746506 459.024109,205.315430 468.008484,205.016235   C478.973969,204.651077 486.562012,209.788452 490.442108,220.428360   C496.250153,236.355042 501.953491,252.319916 507.361206,268.544464   C505.508392,267.550659 503.990479,265.210327 502.484100,265.217743   C498.439545,265.237610 497.520630,263.428009 498.008636,260.022552   C498.566467,256.130066 497.051605,254.370972 493.043610,254.993851   C489.196716,255.591690 487.364624,254.111282 487.992920,250.063492   C488.584015,246.255539 487.178589,244.769943 483.084381,244.867218   C479.323090,244.956604 477.347534,245.763611 477.985962,249.891754   C478.562805,253.621841 477.288910,255.698517 473.130005,255.002380   C468.829987,254.282623 467.391327,256.349609 468.001434,260.345642   C468.588104,264.188080 466.791901,265.501007 463.172363,265.006622   C459.536591,264.509949 457.810669,265.546722 457.844421,269.805023   C457.877686,274.008820 459.186340,275.590912 463.282349,275.015076   C466.470001,274.566986 468.590027,275.485748 467.989471,279.260193   C467.257874,283.858307 469.135162,285.729584 473.739044,285.016083   C476.961884,284.516602 478.389709,285.925812 478.017700,289.220703   C477.819061,290.979797 477.826233,292.762115 477.740509,294.533966   C477.326050,294.283264 476.911560,294.032532 476.497070,293.781830   C474.985931,295.219116 473.474792,296.656433 471.963654,298.093750   C468.680634,296.001831 469.276001,299.329376 468.881805,300.537079   C464.858582,312.862762 460.951599,325.226685 457.057220,337.594086   C438.583832,396.260162 420.139862,454.935547 401.649963,513.596436   C396.745789,529.155396 383.671692,535.472046 370.273590,528.938965   C365.041901,526.387878 361.806793,522.174744 359.496826,516.985718   C337.455658,467.472809 315.375458,417.977234 293.310944,368.474701   C289.521484,359.972870 285.764313,351.456665 281.962433,342.960419   C281.440613,341.794312 280.745178,340.705902 279.754608,338.895020   C269.226471,354.569641 259.065582,369.697510 248.130432,384.938049   C246.195297,385.033600 245.032730,384.968323 243.873825,385.008575   C240.620102,385.121613 237.772675,385.497681 237.829559,380.424896   C237.879501,375.971893 239.197159,374.299469 243.517471,374.997345   C247.548080,375.648438 248.463486,373.427216 247.993073,370.035675   C247.461533,366.203461 248.869675,364.373016 252.915604,364.990021   C256.646088,365.558990 258.281616,364.285919 258.127502,360.135315   C257.992615,356.502960 257.409668,354.292877 253.193054,354.993439   C249.022308,355.686371 247.371155,353.841339 247.998291,349.747498   C248.562073,346.067169 247.043655,344.428192 243.299377,344.998932   C239.273010,345.612671 237.297028,344.093170 238.005066,339.854095   C238.697342,335.709351 236.643753,334.520081 232.911728,334.978149   C231.933441,335.098236 230.924194,334.966064 229.929169,334.949768   C238.795837,321.439728 247.662506,307.929749 257.206268,294.272888   C266.974701,296.677368 267.996796,295.955231 268.000336,286.978363   C268.000610,286.319733 268.001740,285.661072 268.459808,285.001770   C277.971802,284.854004 278.186768,286.276001 277.919586,279.638580   C277.763977,275.772888 279.232574,274.862671 282.831299,274.892700   C286.458832,274.923004 288.712921,275.543243 288.005707,279.795654   C287.311676,283.968964 289.151123,285.633881 293.257019,285.002350   C296.961548,284.432617 298.572723,285.989197 297.998596,289.722260   C297.372162,293.795105 298.958344,295.619629 303.182770,295.032623   C304.649780,294.828766 306.169342,295.002716 307.664856,295.004120  z"/>
<path fill="#ffffff" opacity="1.000000" stroke="none" d=" M229.953171,334.958984   C230.924194,334.966064 231.933441,335.098236 232.911728,334.978149   C236.643753,334.520081 238.697342,335.709351 238.005066,339.854095   C237.297028,344.093170 239.273010,345.612671 243.299377,344.998932   C247.043655,344.428192 248.562073,346.067169 247.998291,349.747498   C247.371155,353.841339 249.022308,355.686371 253.193054,354.993439   C257.409668,354.292877 257.992615,356.502960 258.127502,360.135315   C258.281616,364.285919 256.646088,365.558990 252.915604,364.990021   C248.869675,364.373016 247.461533,366.203461 247.993073,370.035675   C248.463486,373.427216 247.548080,375.648438 243.517471,374.997345   C239.197159,374.299469 237.879501,375.971893 237.829559,380.424896   C237.772675,385.497681 240.620102,385.121613 243.873825,385.008575   C245.032730,384.968323 246.195297,385.033600 247.833038,385.080139   C246.741821,387.631836 245.173767,390.154083 242.962631,392.902740   C242.032242,393.896637 241.744934,394.664154 241.457642,395.431641   C241.347946,395.297913 241.238266,395.164185 240.879547,395.119873   C237.167191,394.982605 238.212326,397.502167 238.120865,399.329376   C234.631119,403.401337 229.997437,405.050079 224.849030,405.066132   C199.027252,405.146606 173.203217,405.296356 147.383759,405.040985   C132.206390,404.890869 122.967903,390.730316 128.325089,375.317810   C130.630356,373.713074 132.392166,372.545563 134.142578,371.361206   C136.507126,369.761292 138.974609,368.208130 137.720230,364.669800   C137.720230,364.669800 137.951889,364.934448 138.274689,364.906677   C143.079514,364.260498 147.556274,363.157471 152.044510,363.108643   C170.314407,362.909821 188.588104,363.078156 206.859512,362.967194   C208.584442,362.956757 210.303238,361.939270 212.024872,361.389282   C212.891296,360.059296 213.757721,358.729279 215.245941,357.154114   C216.197266,356.154236 216.526764,355.399506 216.856247,354.644745   C217.065170,354.174469 217.274109,353.704193 218.078979,353.060486   C219.395615,351.449921 220.116318,350.012817 220.837036,348.575714   C221.453842,347.507080 222.070648,346.438416 223.355148,345.188019   C230.219513,345.375610 227.325836,340.673035 227.964630,337.941406   C227.964630,337.941406 228.006271,337.985016 228.329056,337.930664   C229.085495,336.891998 229.519150,335.907684 229.952820,334.923370   C229.952820,334.923370 229.977173,334.968170 229.953171,334.958984  z"/>
<path fill="#ffffff" opacity="1.000000" stroke="none" d=" M471.919403,298.346069   C473.474792,296.656433 474.985931,295.219116 476.497070,293.781830   C476.911560,294.032532 477.326050,294.283264 477.740509,294.533966   C477.826233,292.762115 477.819061,290.979797 478.017700,289.220703   C478.389709,285.925812 476.961884,284.516602 473.739044,285.016083   C469.135162,285.729584 467.257874,283.858307 467.989471,279.260193   C468.590027,275.485748 466.470001,274.566986 463.282349,275.015076   C459.186340,275.590912 457.877686,274.008820 457.844421,269.805023   C457.810669,265.546722 459.536591,264.509949 463.172363,265.006622   C466.791901,265.501007 468.588104,264.188080 468.001434,260.345642   C467.391327,256.349609 468.829987,254.282623 473.130005,255.002380   C477.288910,255.698517 478.562805,253.621841 477.985962,249.891754   C477.347534,245.763611 479.323090,244.956604 483.084381,244.867218   C487.178589,244.769943 488.584015,246.255539 487.992920,250.063492   C487.364624,254.111282 489.196716,255.591690 493.043610,254.993851   C497.051605,254.370972 498.566467,256.130066 498.008636,260.022552   C497.520630,263.428009 498.439545,265.237610 502.484100,265.217743   C503.990479,265.210327 505.508392,267.550659 507.358887,268.910950   C508.144531,270.101105 508.592346,271.200714 508.791138,272.812408   C508.929962,273.884735 509.317780,274.444977 509.705627,275.005219   C509.984772,275.522827 510.263947,276.040466 510.373047,277.280029   C510.667023,280.073334 511.131073,282.144684 511.640076,284.416626   C506.394989,285.196930 508.091766,289.176270 508.151276,292.179199   C508.170074,293.127625 509.894287,294.937592 510.624023,294.834747   C516.372986,294.024506 517.019775,298.013245 518.052917,301.986511   C518.344727,303.108643 519.598267,303.980682 520.410767,304.967407   C520.410767,304.967407 520.411194,305.047455 520.316284,305.511414   C520.929138,308.800537 521.636841,311.625641 522.269714,314.152161   C520.739990,315.047211 518.778198,315.499420 518.251221,316.623993   C515.983765,321.462372 518.467285,324.979706 523.837830,324.998596   C525.150574,325.003235 526.463318,325.002838 527.776062,325.004730   C528.229614,326.093964 528.683167,327.183197 528.807373,328.890259   C528.069580,332.006012 526.565430,335.076019 531.290100,334.893707   C531.546509,335.403351 531.802979,335.912994 531.800659,336.876709   C531.966858,337.888123 532.391907,338.445496 532.816895,339.002869   C533.478271,340.657074 534.139709,342.311279 534.317383,344.412170   C529.106812,344.296600 527.201538,346.341461 527.968994,351.049347   C528.178467,352.334198 528.000305,353.682190 527.542480,355.001068   C526.255493,355.001007 525.409912,355.107178 524.599182,354.983887   C519.604309,354.224182 517.081421,355.856445 517.963074,361.342133   C518.581909,365.192505 515.808411,365.283875 513.215210,364.962738   C509.044525,364.446228 507.517120,366.105347 507.929108,370.243896   C508.119415,372.155701 508.853821,374.756378 505.327881,375.021942   C502.388458,375.243347 500.691162,374.311432 499.871918,371.321198   C499.442688,369.754364 498.128571,368.429901 497.214050,366.996002   C496.135437,364.245270 495.056854,361.494568 494.229706,358.183533   C494.574493,356.984253 494.475677,355.909607 494.789734,355.771118   C500.288910,353.345795 497.419312,349.096344 497.594299,346.130798   C494.066956,344.938019 491.190704,343.965424 488.314453,342.992798   C487.856964,341.897400 487.399475,340.802002 487.243134,339.107544   C486.896912,337.350067 486.249603,336.191559 485.602264,335.033081   C485.602264,335.033081 485.595245,334.949402 485.688538,334.483856   C485.074005,331.191559 484.366180,328.364807 483.580444,325.226837   C489.800842,325.496490 487.834778,321.064911 487.942383,317.973755   C488.088837,313.766418 484.742767,315.275269 482.584167,315.032379   C481.122375,314.867798 479.627319,314.998260 478.147156,314.996796   C477.687622,313.920105 477.228088,312.843384 477.108734,311.163025   C479.197968,305.115845 474.083557,302.789215 472.197876,298.996307   C472.090332,298.863678 471.982758,298.731049 471.919403,298.346069  z"/>
<path fill="#ffffff" opacity="1.000000" stroke="none" d=" M497.209198,367.368347   C498.128571,368.429901 499.442688,369.754364 499.871918,371.321198   C500.691162,374.311432 502.388458,375.243347 505.327881,375.021942   C508.853821,374.756378 508.119415,372.155701 507.929108,370.243896   C507.517120,366.105347 509.044525,364.446228 513.215210,364.962738   C515.808411,365.283875 518.581909,365.192505 517.963074,361.342133   C517.081421,355.856445 519.604309,354.224182 524.599182,354.983887   C525.409912,355.107178 526.255493,355.001007 527.542480,355.457886   C528.000549,364.994873 528.000549,364.994843 537.021606,364.999756   C537.347717,364.999908 537.673889,365.000702 538.000000,365.000610   C538.000000,365.000000 538.000000,364.998779 538.000000,365.456421   C538.000000,366.899994 537.998291,367.885925 538.000366,368.871857   C538.013916,375.249146 538.059082,375.117126 544.197632,375.070251   C547.348145,375.046204 548.228333,373.748596 548.024841,370.912384   C547.884155,368.950684 547.999207,366.970642 548.000000,364.999390   C548.000000,365.000000 548.000000,365.001221 548.454102,365.000488   C551.938782,365.000244 554.969421,365.000732 558.000000,365.000610   C558.000000,365.000000 558.000000,364.998779 558.000000,365.456421   C558.000000,366.899994 557.998291,367.885925 558.000366,368.871857   C558.013916,375.249146 558.059082,375.117126 564.197632,375.070251   C567.348145,375.046204 568.228333,373.748596 568.024841,370.912384   C567.884155,368.950684 567.999207,366.970642 568.000000,364.999390   C568.000000,365.000000 568.000000,365.001221 568.454102,365.000488   C571.938782,365.000244 574.969421,365.000732 578.000000,365.000610   C578.000000,365.000000 578.000000,364.998779 578.000000,365.456421   C578.000000,366.899994 577.998291,367.885925 578.000366,368.871857   C578.013916,375.249146 578.059082,375.117096 584.197632,375.070251   C587.348145,375.046173 588.228333,373.748596 588.024841,370.912384   C587.884155,368.950684 587.999207,366.970642 588.000000,364.999390   C588.000000,365.000000 588.000000,365.001221 588.450867,365.000488   C590.857971,364.998138 592.823242,364.876740 594.768250,365.023773   C597.504211,365.230560 598.185181,363.783051 597.991760,361.449890   C609.093140,362.925842 617.172363,372.393555 616.786804,383.475189   C616.387146,394.963409 607.117432,404.950500 596.013489,405.053467   C572.410522,405.272491 548.802490,405.276215 525.199890,405.040283   C515.757812,404.945892 509.286926,399.677185 505.797943,391.093384   C502.676392,383.413605 500.049530,375.532776 497.209198,367.368347  z"/>
<path fill="#ffffff" opacity="1.000000" stroke="none" d=" M307.651093,294.652405   C306.169342,295.002716 304.649780,294.828766 303.182770,295.032623   C298.958344,295.619629 297.372162,293.795105 297.998596,289.722260   C298.572723,285.989197 296.961548,284.432617 293.257019,285.002350   C289.151123,285.633881 287.311676,283.968964 288.005707,279.795654   C288.712921,275.543243 286.458832,274.923004 282.831299,274.892700   C279.232574,274.862671 277.763977,275.772888 277.919586,279.638580   C278.186768,286.276001 277.971802,284.854004 268.458588,285.000549   C268.000000,285.000000 267.997559,284.997559 267.990570,284.634857   C267.028351,283.515717 266.073090,282.759247 265.117859,282.002808   C269.051514,274.640686 275.673218,271.576538 283.524323,271.656586   C291.808716,271.741089 298.621643,275.258270 302.540955,283.000763   C304.405243,286.683594 305.948578,290.528931 307.651093,294.652405  z"/>
<path fill="#ffffff" opacity="1.000000" stroke="none" d=" M211.555206,361.420868   C210.303238,361.939270 208.584442,362.956757 206.859512,362.967194   C188.588104,363.078156 170.314407,362.909821 152.044510,363.108643   C147.556274,363.157471 143.079514,364.260498 138.145813,364.786987   C142.101532,363.661377 146.494049,361.814301 150.918854,361.733490   C170.969437,361.367279 191.029129,361.499603 211.555206,361.420868  z"/>
<path fill="#ffffff" opacity="1.000000" stroke="none" d=" M520.436890,304.563049   C519.598267,303.980682 518.344727,303.108643 518.052917,301.986511   C517.019775,298.013245 516.372986,294.024506 510.624023,294.834747   C509.894287,294.937592 508.170074,293.127625 508.151276,292.179199   C508.091766,289.176270 506.394989,285.196930 511.640076,284.416626   C511.131073,282.144684 510.667023,280.073334 510.296570,277.576660   C513.747803,286.153839 517.105408,295.156250 520.436890,304.563049  z"/>
<path fill="#ffffff" opacity="1.000000" stroke="none" d=" M538.000000,365.001221   C537.673889,365.000702 537.347717,364.999908 537.021606,364.999756   C528.000549,364.994843 528.000549,364.994873 528.466064,355.458038   C532.106567,354.945618 535.281067,354.890015 538.455505,354.834412   C538.702087,355.351044 538.948608,355.867676 538.840210,356.947937   C538.323486,360.008087 538.161743,362.504669 538.000000,365.001221  z"/>
<path fill="#ffffff" opacity="1.000000" stroke="none" d=" M527.789612,324.631775   C526.463318,325.002838 525.150574,325.003235 523.837830,324.998596   C518.467285,324.979706 515.983765,321.462372 518.251221,316.623993   C518.778198,315.499420 520.739990,315.047211 522.269714,314.152161   C521.636841,311.625641 520.929138,308.800537 520.326172,305.550171   C522.888367,311.502899 525.345764,317.880829 527.789612,324.631775  z"/>
<path fill="#ffffff" opacity="1.000000" stroke="none" d=" M478.126099,315.371887   C479.627319,314.998260 481.122375,314.867798 482.584167,315.032379   C484.742767,315.275269 488.088837,313.766418 487.942383,317.973755   C487.834778,321.064911 489.800842,325.496490 483.580444,325.226837   C484.366180,328.364807 485.074005,331.191559 485.678589,334.443054   C483.085236,328.494171 480.595123,322.120544 478.126099,315.371887  z"/>
<path fill="#ffffff" opacity="1.000000" stroke="none" d=" M538.424622,354.446289   C535.281067,354.890015 532.106567,354.945618 528.466064,355.001221   C528.000305,353.682190 528.178467,352.334198 527.968994,351.049347   C527.201538,346.341461 529.106812,344.296600 534.319275,344.797485   C536.001160,347.843506 537.197449,350.950836 538.424622,354.446289  z"/>
<path fill="#ffffff" opacity="1.000000" stroke="none" d=" M268.001221,285.001221   C268.001740,285.661072 268.000610,286.319733 268.000336,286.978363   C267.996796,295.955231 266.974701,296.677368 257.478790,294.074951   C259.446625,290.282776 261.819000,286.541718 264.569977,283.003906   C265.964905,283.803986 266.981232,284.400787 267.997559,284.997559   C267.997559,284.997559 268.000000,285.000000 268.001221,285.001221  z"/>
<path fill="#ffffff" opacity="1.000000" stroke="none" d=" M488.305908,343.354553   C491.190704,343.965424 494.066956,344.938019 497.594299,346.130798   C497.419312,349.096344 500.288910,353.345795 494.789734,355.771118   C494.475677,355.909607 494.574493,356.984253 494.240692,357.811584   C492.099274,353.238708 490.198334,348.477509 488.305908,343.354553  z"/>
<path fill="#ffffff" opacity="1.000000" stroke="none" d=" M538.000000,365.000610   C538.161743,362.504669 538.323486,360.008087 538.783691,357.239777   C540.388733,361.083405 543.555664,361.544647 547.605225,361.584045   C548.015808,363.049713 548.007935,364.025482 548.000000,365.001221   C548.000000,365.001221 548.000000,365.000000 547.545898,365.000122   C544.061218,364.999756 541.030579,364.999268 538.000000,364.998779   C538.000000,364.998779 538.000000,365.000000 538.000000,365.000610  z"/>
<path fill="#ffffff" opacity="1.000000" stroke="none" d=" M137.376953,364.715576   C138.974609,368.208130 136.507126,369.761292 134.142578,371.361206   C132.392166,372.545563 130.630356,373.713074 128.543396,374.950745   C131.153336,371.596069 134.093506,368.178741 137.376953,364.715576  z"/>
<path fill="#ffffff" opacity="1.000000" stroke="none" d=" M548.454102,365.000488   C548.007935,364.025482 548.015808,363.049713 548.016968,361.708130   C551.042664,361.257446 554.074951,361.172607 557.540405,361.580750   C557.982422,363.049591 557.991211,364.025391 558.000000,365.001221   C554.969421,365.000732 551.938782,365.000244 548.454102,365.000488  z"/>
<path fill="#ffffff" opacity="1.000000" stroke="none" d=" M558.000000,365.000610   C557.991211,364.025391 557.982422,363.049591 557.978210,361.707855   C561.031372,361.258942 564.079956,361.175964 567.576050,361.583466   C568.015808,363.049713 568.007874,364.025482 568.000000,365.001221   C568.000000,365.001221 568.000000,365.000000 567.545898,365.000122   C564.061218,364.999756 561.030579,364.999268 558.000000,364.998779   C558.000000,364.998779 558.000000,365.000000 558.000000,365.000610  z"/>
<path fill="#ffffff" opacity="1.000000" stroke="none" d=" M568.454102,365.000488   C568.007874,364.025482 568.015808,363.049713 568.016968,361.708130   C571.042664,361.257477 574.074951,361.172638 577.540405,361.580780   C577.982361,363.049591 577.991150,364.025391 578.000000,365.001221   C574.969421,365.000732 571.938782,365.000244 568.454102,365.000488  z"/>
<path fill="#ffffff" opacity="1.000000" stroke="none" d=" M578.000000,365.000610   C577.991150,364.025391 577.982361,363.049591 577.978210,361.707855   C581.031372,361.258972 584.079956,361.175964 587.576050,361.583435   C588.015747,363.049713 588.007874,364.025452 588.000000,365.001221   C588.000000,365.001221 588.000000,365.000000 587.545898,365.000122   C584.061218,364.999756 581.030579,364.999268 578.000000,364.998779   C578.000000,364.998779 578.000000,365.000000 578.000000,365.000610  z"/>
<path fill="#ffffff" opacity="1.000000" stroke="none" d=" M588.450867,365.000488   C588.007874,364.025452 588.015747,363.049713 588.016968,361.708099   C591.047852,361.282532 594.085388,361.222778 597.557373,361.306458   C598.185181,363.783051 597.504211,365.230560 594.768250,365.023773   C592.823242,364.876740 590.857971,364.998138 588.450867,365.000488  z"/>
<path fill="#ffffff" opacity="1.000000" stroke="none" d=" M472.201721,299.367126   C474.083557,302.789215 479.197968,305.115845 477.149658,310.810760   C475.302124,307.287415 473.753845,303.512695 472.201721,299.367126  z"/>
<path fill="#ffffff" opacity="1.000000" stroke="none" d=" M227.674500,338.103363   C227.325836,340.673035 230.219513,345.375610 223.610931,345.005402   C224.594147,342.758148 225.989243,340.511719 227.674500,338.103363  z"/>
<path fill="#ffffff" opacity="1.000000" stroke="none" d=" M531.298462,334.528442   C526.565430,335.076019 528.069580,332.006012 528.764221,329.243896   C529.802551,330.707520 530.554688,332.435364 531.298462,334.528442  z"/>
<path fill="#ffffff" opacity="1.000000" stroke="none" d=" M238.431793,399.211243   C238.212326,397.502167 237.167191,394.982605 241.048172,395.321350   C240.558121,396.653259 239.650406,397.873199 238.431793,399.211243  z"/>
<path fill="#ffffff" opacity="1.000000" stroke="none" d=" M267.990570,284.634857   C266.981232,284.400787 265.964905,283.803986 264.867432,282.819214   C264.786316,282.431244 264.787384,282.089600 264.952637,282.046204   C266.073090,282.759247 267.028351,283.515717 267.990570,284.634857  z"/>
<path fill="#ffffff" opacity="1.000000" stroke="none" d=" M485.564758,335.392639   C486.249603,336.191559 486.896912,337.350067 487.278748,338.751709   C486.517914,337.913971 486.022552,336.833069 485.564758,335.392639  z"/>
<path fill="#ffffff" opacity="1.000000" stroke="none" d=" M220.541229,348.741333   C220.116318,350.012817 219.395615,351.449921 218.314224,352.934753   C218.717514,351.623962 219.481476,350.265472 220.541229,348.741333  z"/>
<path fill="#ffffff" opacity="1.000000" stroke="none" d=" M229.658356,335.050354   C229.519150,335.907684 229.085495,336.891998 228.299652,337.924072   C228.419617,337.040344 228.891754,336.108826 229.658356,335.050354  z"/>
<path fill="#ffffff" opacity="1.000000" stroke="none" d=" M241.709869,395.265381   C241.744934,394.664154 242.032242,393.896637 242.670639,393.068298   C242.668533,393.704651 242.315323,394.401886 241.709869,395.265381  z"/>
<path fill="#ffffff" opacity="1.000000" stroke="none" d=" M532.861389,338.708923   C532.391907,338.445496 531.966858,337.888123 531.760376,337.169556   C532.287842,337.477234 532.596863,337.946106 532.861389,338.708923  z"/>
<path fill="#ffffff" opacity="1.000000" stroke="none" d=" M509.741089,274.728333   C509.317780,274.444977 508.929962,273.884735 508.755432,273.168213   C509.238037,273.491791 509.507263,273.971619 509.741089,274.728333  z"/>
<path fill="#ffffff" opacity="1.000000" stroke="none" d=" M216.574860,354.778595   C216.526764,355.399506 216.197266,356.154236 215.540436,356.987976   C215.573212,356.348785 215.933319,355.630615 216.574860,354.778595  z"/>
<path fill="#ffffff" opacity="1.000000" stroke="none" d=" M538.000000,365.456421   C541.030579,364.999268 544.061218,364.999756 547.545898,364.999512   C547.999207,366.970642 547.884155,368.950684 548.024841,370.912384   C548.228333,373.748596 547.348145,375.046204 544.197632,375.070251   C538.059082,375.117126 538.013916,375.249146 538.000366,368.871857   C537.998291,367.885925 538.000000,366.899994 538.000000,365.456421  z"/>
<path fill="#ffffff" opacity="1.000000" stroke="none" d=" M578.000000,365.456421   C581.030579,364.999268 584.061218,364.999756 587.545898,364.999512   C587.999207,366.970642 587.884155,368.950684 588.024841,370.912384   C588.228333,373.748596 587.348145,375.046173 584.197632,375.070251   C578.059082,375.117096 578.013916,375.249146 578.000366,368.871857   C577.998291,367.885925 578.000000,366.899994 578.000000,365.456421  z"/>
<path fill="#ffffff" opacity="1.000000" stroke="none" d=" M558.000000,365.456421   C561.030579,364.999268 564.061218,364.999756 567.545898,364.999512   C567.999207,366.970642 567.884155,368.950684 568.024841,370.912384   C568.228333,373.748596 567.348145,375.046204 564.197632,375.070251   C558.059082,375.117126 558.013916,375.249146 558.000366,368.871857   C557.998291,367.885925 558.000000,366.899994 558.000000,365.456421  z"/>
</svg>